<svg width="1200" height="800" viewBox="0 0 1200 800" xmlns="http://www.w3.org/2000/svg" role="img" aria-labelledby="title desc">
  <title id="title">Corporate tax planning illustration</title>
  <desc id="desc">Abstract 3D charts and layered shapes representing corporate tax planning insights.</desc>
  <defs>
    <linearGradient id="bg" x1="0" y1="0" x2="1" y2="1">
      <stop offset="0%" stop-color="#f5f9ff"/>
      <stop offset="100%" stop-color="#dbe8ff"/>
    </linearGradient>
    <linearGradient id="accent" x1="0" y1="0" x2="1" y2="1">
      <stop offset="0%" stop-color="#003d8d"/>
      <stop offset="100%" stop-color="#00a0d8"/>
    </linearGradient>
    <linearGradient id="accentSoft" x1="0" y1="0" x2="1" y2="1">
      <stop offset="0%" stop-color="#8fb5ff"/>
      <stop offset="100%" stop-color="#d7e5ff"/>
    </linearGradient>
  </defs>
  <rect width="1200" height="800" fill="url(#bg)" rx="36"/>
  <g opacity="0.28" transform="translate(120 120)">
    <circle cx="200" cy="140" r="120" fill="#8dbdff"/>
    <circle cx="450" cy="60" r="90" fill="#00bcd4" opacity="0.4"/>
    <circle cx="720" cy="180" r="140" fill="#0050b3" opacity="0.18"/>
    <circle cx="520" cy="280" r="120" fill="#8dbdff" opacity="0.35"/>
  </g>
  <g transform="translate(180 220)">
    <rect x="0" y="120" width="180" height="240" rx="24" fill="#fff" opacity="0.7"/>
    <rect x="220" y="60" width="200" height="300" rx="24" fill="#fff" opacity="0.9"/>
    <rect x="460" y="0" width="200" height="360" rx="24" fill="url(#accentSoft)"/>
    <rect x="700" y="80" width="180" height="280" rx="24" fill="#fff" opacity="0.85"/>
    <rect x="140" y="320" width="640" height="24" rx="12" fill="#003d8d" opacity="0.2"/>
    <rect x="180" y="360" width="560" height="24" rx="12" fill="#003d8d" opacity="0.15"/>
    <rect x="220" y="400" width="480" height="24" rx="12" fill="#003d8d" opacity="0.1"/>
  </g>
  <g transform="translate(340 260)">
    <rect width="320" height="220" rx="24" fill="#fff"/>
    <rect x="32" y="40" width="120" height="32" rx="16" fill="#e3edff"/>
    <rect x="32" y="96" width="256" height="18" rx="9" fill="#b0c8ff"/>
    <rect x="32" y="134" width="210" height="18" rx="9" fill="#d9e5ff"/>
    <rect x="32" y="172" width="180" height="18" rx="9" fill="#e9f0ff"/>
    <path d="M190 96 L260 120 L230 160 Z" fill="url(#accent)" opacity="0.9"/>
  </g>
  <g transform="translate(780 360)" opacity="0.45">
    <circle cx="0" cy="0" r="60" fill="#003d8d"/>
    <circle cx="110" cy="0" r="48" fill="#00a0d8" opacity="0.6"/>
    <circle cx="54" cy="88" r="42" fill="#85c5ff" opacity="0.8"/>
  </g>
</svg>
