<svg width="1200" height="800" viewBox="0 0 1200 800" xmlns="http://www.w3.org/2000/svg" role="img" aria-labelledby="title desc">
  <title id="title">Internal controls case study illustration</title>
  <desc id="desc">Audit specialists reviewing financial controls with layered security visuals.</desc>
  <defs>
    <linearGradient id="bg" x1="0" y1="0" x2="1" y2="1">
      <stop offset="0%" stop-color="#f4f7ff"/>
      <stop offset="100%" stop-color="#e4ebff"/>
    </linearGradient>
    <linearGradient id="shield" x1="0" y1="0" x2="1" y2="1">
      <stop offset="0%" stop-color="#1f3c88"/>
      <stop offset="100%" stop-color="#3857d6"/>
    </linearGradient>
    <linearGradient id="accent" x1="0" y1="0" x2="1" y2="1">
      <stop offset="0%" stop-color="#6d8dff"/>
      <stop offset="100%" stop-color="#9fb3ff"/>
    </linearGradient>
  </defs>
  <rect width="1200" height="800" fill="url(#bg)" rx="36"/>
  <g opacity="0.24" transform="translate(120 120)">
    <circle cx="160" cy="220" r="160" fill="#8fa3ff"/>
    <circle cx="520" cy="120" r="200" fill="#5364d8"/>
    <circle cx="780" cy="260" r="180" fill="#96a4ff"/>
  </g>
  <g transform="translate(220 200)">
    <rect width="720" height="360" rx="40" fill="#fff" opacity="0.85"/>
    <rect x="80" y="80" width="560" height="200" rx="28" fill="#f4f6ff"/>
    <rect x="120" y="120" width="220" height="20" rx="10" fill="#d2d9ff"/>
    <rect x="120" y="160" width="340" height="20" rx="10" fill="#c1ccff" opacity="0.8"/>
    <rect x="120" y="200" width="300" height="20" rx="10" fill="#e1e6ff"/>
  </g>
  <g transform="translate(420 260)">
    <path d="M160 0 L320 90 L280 260 L40 260 L0 90 Z" fill="url(#shield)" opacity="0.92"/>
    <path d="M160 50 L260 110 L232 220 L88 220 L60 110 Z" fill="#fff" opacity="0.9"/>
    <circle cx="160" cy="150" r="58" fill="url(#accent)"/>
    <path d="M160 120 L190 150 L160 180 L130 150 Z" fill="#fff" opacity="0.95"/>
  </g>
  <g transform="translate(820 420)" opacity="0.45">
    <circle cx="0" cy="0" r="52" fill="#354fce"/>
    <circle cx="82" cy="0" r="42" fill="#6a8aff"/>
    <circle cx="40" cy="70" r="34" fill="#a6b8ff"/>
  </g>
</svg>
