<svg width="1200" height="800" viewBox="0 0 1200 800" xmlns="http://www.w3.org/2000/svg" role="img" aria-labelledby="title desc">
  <title id="title">Outsourced accounting collaboration</title>
  <desc id="desc">Abstract illustration of finance professionals collaborating with digital dashboards.</desc>
  <defs>
    <linearGradient id="bg" x1="0" y1="0" x2="1" y2="1">
      <stop offset="0%" stop-color="#f6fbff"/>
      <stop offset="100%" stop-color="#e0f7ff"/>
    </linearGradient>
    <linearGradient id="accent" x1="0" y1="0" x2="1" y2="1">
      <stop offset="0%" stop-color="#007d8c"/>
      <stop offset="100%" stop-color="#28b4d3"/>
    </linearGradient>
    <linearGradient id="soft" x1="0" y1="0" x2="1" y2="1">
      <stop offset="0%" stop-color="#9ce7f5"/>
      <stop offset="100%" stop-color="#c8f2ff"/>
    </linearGradient>
  </defs>
  <rect width="1200" height="800" fill="url(#bg)" rx="36"/>
  <g opacity="0.18" transform="translate(140 60)">
    <circle cx="160" cy="220" r="160" fill="#46c0e0"/>
    <circle cx="540" cy="140" r="200" fill="#007d8c"/>
    <circle cx="780" cy="260" r="150" fill="#33aac6"/>
  </g>
  <g transform="translate(180 200)">
    <rect width="320" height="380" rx="32" fill="#fff" opacity="0.9"/>
    <rect x="400" y="40" width="360" height="280" rx="32" fill="#fff" opacity="0.9"/>
    <rect x="220" y="80" width="260" height="220" rx="28" fill="url(#soft)"/>
    <rect x="480" y="260" width="160" height="160" rx="28" fill="#fff" opacity="0.7"/>
  </g>
  <g transform="translate(250 260)">
    <rect width="220" height="220" rx="24" fill="#fff"/>
    <rect x="30" y="40" width="160" height="18" rx="9" fill="#c0e7f1"/>
    <rect x="30" y="72" width="100" height="18" rx="9" fill="#9bd8e8"/>
    <rect x="30" y="118" width="160" height="18" rx="9" fill="#d4f3fc"/>
    <rect x="30" y="150" width="140" height="18" rx="9" fill="#e5f9ff"/>
    <circle cx="160" cy="170" r="34" fill="url(#accent)"/>
  </g>
  <g transform="translate(520 260)">
    <rect width="320" height="220" rx="28" fill="#fff"/>
    <rect x="36" y="46" width="248" height="28" rx="14" fill="#d8f3fa"/>
    <rect x="36" y="96" width="180" height="20" rx="10" fill="#bce8f1"/>
    <rect x="36" y="132" width="220" height="20" rx="10" fill="#bce8f1" opacity="0.7"/>
    <rect x="36" y="168" width="160" height="20" rx="10" fill="#dff6fb"/>
    <path d="M220 60 L270 120 L200 160 Z" fill="url(#accent)" opacity="0.9"/>
  </g>
  <g transform="translate(860 420)" opacity="0.4">
    <circle cx="0" cy="0" r="54" fill="#1c9ab7"/>
    <circle cx="82" cy="0" r="42" fill="#39c0da"/>
    <circle cx="40" cy="68" r="36" fill="#82e4f6"/>
  </g>
</svg>
